<svg xmlns="http://www.w3.org/2000/svg" viewBox="0 0 13 13"><path fill-rule="evenodd" d="M12.58 3.096l-1.457 1.46c-.543.544-1.493.543-2.037 0l-.364-.366c-.117-.117-.268-.174-.46-.174-.364 0-1.186.212-2.607 1.633-1.668 1.668-1.847 2.68-1.458 3.07l.364.363c.563.563.563 1.477 0 2.04L3.104 12.58c-.272.273-.634.424-1.018.424-.385 0-.747-.15-1.02-.422l-.363-.366C-.892 10.622.39 6.842 3.618 3.61 5.84 1.387 8.416.005 10.34.005c.778 0 1.428.238 1.877.688l.365.365c.272.272.422.634.422 1.02 0 .385-.15.747-.423 1.02z"/></svg>