<svg xmlns="http://www.w3.org/2000/svg" viewBox="0 0 11 11"><path fill-rule="evenodd" d="M5.5 11C2.463 11 0 8.538 0 5.5 0 2.463 2.463 0 5.5 0 8.538 0 11 2.463 11 5.5 11 8.538 8.538 11 5.5 11zM5.5.688C2.846.688.688 2.848.688 5.5c0 2.654 2.158 4.823 4.812 4.823 2.654 0 4.813-2.17 4.813-4.823 0-2.653-2.16-4.812-4.813-4.812zm.462 7.004c-.088 0-.176-.034-.243-.1-.135-.135-.135-.353 0-.487L6.983 5.84H3.09c-.19 0-.343-.154-.343-.343 0-.19.153-.344.343-.344h3.872L5.72 3.91c-.135-.135-.135-.353 0-.487.133-.134.35-.134.485 0l2.03 2.084-2.03 2.084c-.067.068-.155.102-.243.102z"/></svg>