<svg xmlns="http://www.w3.org/2000/svg" viewBox="0 0 14 14"><path fill-rule="evenodd" d="M9.686 9.445c-.242.33-.6.59-1.062.777-.458.183-1.008.277-1.633.277-.75 0-1.38-.13-1.87-.38-.352-.182-.642-.43-.862-.736-.22-.308-.334-.614-.334-.91 0-.185.073-.345.218-.475.143-.132.326-.197.545-.197.18 0 .335.05.46.154.12.098.224.244.307.432.093.204.194.376.3.51.103.133.25.242.44.328.188.087.444.13.758.13.432 0 .787-.088 1.053-.264.26-.17.387-.376.387-.628 0-.2-.066-.355-.202-.478-.142-.128-.33-.228-.558-.297-.237-.07-.56-.147-.96-.228-.54-.112-1.002-.245-1.37-.395-.374-.153-.676-.367-.897-.633-.224-.27-.338-.61-.338-1.01 0-.38.12-.724.355-1.02.234-.293.575-.522 1.015-.678.434-.155.95-.233 1.534-.233.467 0 .878.052 1.22.155.345.103.635.243.864.414.23.174.4.358.508.55.108.195.163.388.163.575 0 .18-.072.344-.214.487-.142.143-.323.216-.536.216-.193 0-.345-.046-.45-.135-.098-.083-.2-.214-.312-.4-.13-.24-.288-.427-.47-.56-.175-.13-.47-.194-.872-.194-.375 0-.68.073-.906.217-.218.137-.324.295-.324.482 0 .114.034.21.105.293.074.088.18.164.31.228.14.067.28.12.422.158.145.04.39.096.723.17.423.09.812.187 1.156.293.348.108.648.24.894.394.25.157.45.36.59.6.14.242.212.54.212.887 0 .416-.123.795-.366 1.125zm4.302 1.05c0 1.934-1.567 3.502-3.5 3.502-.94 0-1.79-.373-2.42-.977-.35.063-.71.1-1.078.1-3.382 0-6.124-2.743-6.124-6.128 0-.37.038-.73.1-1.08-.602-.63-.975-1.482-.975-2.423 0-1.935 1.568-3.503 3.5-3.503.94 0 1.792.373 2.42.976.35-.063.71-.1 1.08-.1 3.382 0 6.123 2.744 6.123 6.13 0 .368-.038.728-.1 1.08.602.628.975 1.48.975 2.42z"/></svg>