<svg version="1.1" id="Layer_1" xmlns="http://www.w3.org/2000/svg" xmlns:xlink="http://www.w3.org/1999/xlink" x="0px" y="0px"
	 viewBox="0 0 30 30" enable-background="new 0 0 30 30" xml:space="preserve">
<path opacity="0.2" d="M15,0C6.7,0,0,6.7,0,15c0,8.3,6.7,15,15,15c8.3,0,15-6.7,15-15C30,6.7,23.3,0,15,0z M15,27
	C8.4,27,3,21.6,3,15S8.4,3,15,3s12,5.4,12,12S21.6,27,15,27z"/>
<path fill="#ccd3d9" d="M15,3V0C6.7,0,0,6.7,0,15h3C3,8.4,8.4,3,15,3z">
    <animateTransform attributeType="xml"
      attributeName="transform"
      type="rotate"
      from="0 15 15"
      to="360 15 15"
      dur="0.5s"
      repeatCount="indefinite"/>
</path>
</svg>
