<svg xmlns="http://www.w3.org/2000/svg" width="12" height="12"><path fill-rule="evenodd" d="M11.32 3.475c-.445.46-7.155 7.098-7.44 7.38-.045.045-.1.077-.16.095-.45.135-3.197 1.023-3.225 1.032C.457 11.994.418 12 .38 12c-.1 0-.195-.04-.268-.11-.1-.1-.137-.25-.096-.386.01-.026.82-2.688.983-3.288.017-.065.05-.123.098-.17L8.503.635c.15-.15.698-.634 1.45-.634.48 0 .93.198 1.337.59.463.443.702.92.71 1.413.01.5-.22.995-.68 1.47zM.904 11.077c.734-.236 1.87-.628 2.38-.79-.07-.227-.218-.596-.562-.943-.438-.442-.866-.598-1.07-.652-.17.573-.53 1.67-.748 2.385zM3.26 8.803c.325.328.514.672.637.962 1.33-1.316 4.726-4.677 6.2-6.144-.012-.07-.118-.627-.613-1.126-.47-.473-.916-.617-1.1-.66L2.162 8.06c.307.125.706.347 1.098.743zm7.506-7.657c-.262-.25-.535-.378-.814-.378-.485 0-.873.372-.916.414l-.057.057c.3.127.67.338 1.04.713.36.362.568.753.686 1.058.026-.025.058-.056.07-.07.314-.324.47-.633.465-.92-.004-.283-.164-.576-.474-.874z"/></svg>