<svg xmlns="http://www.w3.org/2000/svg" viewBox="0 0 11 9"><path fill-rule="evenodd" d="M9.99 9.003H.96c-.444 0-.96-.465-.96-1.04V2.416c0-.682.688-1.028 1.03-1.028h1.583L3.438.002h4.125l.825 1.385h1.58c.688 0 1.032.693 1.032 1.04v5.548c0 .54-.56 1.028-1.01 1.028zm.323-6.577c-.004-.028-.102-.346-.344-.346H7.997l-.188-.336-.614-1.05h-3.37l-.624 1.05-.2.336H1.032c-.052.005-.344.116-.344.335v5.55c0 .183.194.34.274.345H9.99c.103-.008.323-.198.323-.335v-5.55zM5.5 6.99C4.12 6.99 3 5.87 3 4.49c0-1.382 1.12-2.502 2.5-2.502S8 3.108 8 4.488C8 5.87 6.88 6.992 5.5 6.992zm0-4.288c-.985 0-1.786.802-1.786 1.787 0 .984.8 1.786 1.786 1.786.985 0 1.786-.802 1.786-1.787 0-.986-.8-1.788-1.786-1.788z"/></svg>