<svg xmlns="http://www.w3.org/2000/svg" viewBox="0 0 14 14"><path fill-rule="evenodd" d="M13.125 8.348l-1.137.284c-.085.26-.19.51-.313.75l.608 1.013c.227.362.34.895 0 1.237l-.62.62c-.34.34-.917.28-1.265.038l-.987-.63c-.252.132-.515.243-.79.332l-.253 1.14c-.075.417-.44.868-.923.868H6.57c-.484 0-.78-.458-.876-.875l-.28-1.12c-.298-.094-.584-.216-.857-.36l-1.012.645c-.348.24-.925.303-1.266-.04l-.62-.618c-.34-.342-.227-.875 0-1.237l.64-1.067c-.11-.224-.21-.455-.288-.696L.875 8.348C.458 8.252 0 7.956 0 7.473v-.875c0-.484.45-.848.868-.923l1.123-.25c.083-.26.19-.51.31-.752l-.64-1.065c-.227-.363-.342-.896 0-1.238l.62-.618c.34-.342.917-.28 1.265-.04l1.01.644c.27-.143.555-.264.852-.358l.28-1.123C5.784.458 6.08 0 6.564 0h.874c.484 0 .848.45.923.868l.252 1.137c.278.09.545.203.8.335l.986-.627c.348-.242.925-.303 1.266.04l.62.617c.34.342.226.875 0 1.238l-.61 1.012c.133.258.247.525.335.806l1.122.25c.417.074.868.438.868.922v.875c0 .483-.458.78-.875.875zm-.183-1.82l-1.617-.358-.15-.483c-.07-.217-.16-.436-.28-.67l-.22-.43.866-1.443c.05-.077.073-.152.08-.197l-.574-.558c-.056 0-.12.02-.18.06l-1.41.9-.447-.233c-.22-.113-.443-.207-.667-.28l-.476-.154-.367-1.66C7.488.96 7.432.883 7.437.875h-.813c-.027.038-.064.11-.087.212l-.4 1.597-.465.148c-.24.076-.48.176-.71.298l-.45.237-1.466-.935c-.03-.02-.093-.043-.15-.06l-.574.574c.008.046.033.124.088.212l.886 1.475-.213.43c-.112.224-.196.428-.257.625l-.152.482-1.65.366c-.06.01-.132.062-.147.062H.875v.813c.038.028.11.066.212.09l1.607.4.15.46c.06.188.14.378.24.58l.213.428-.895 1.49c-.048.078-.072.153-.08.198l.574.558c.057 0 .12-.022.18-.062l1.44-.918.45.237c.233.124.472.225.712.3l.466.15.403 1.61c.02.088.057.158.084.195h.788c.032-.025.08-.095.095-.182l.36-1.63.478-.153c.22-.072.442-.164.658-.276l.448-.232 1.44.92c.03.02.094.042.15.06l.575-.575c-.007-.046-.033-.124-.087-.212l-.857-1.43.22-.43c.105-.208.193-.418.26-.626l.15-.46 1.623-.405c.088-.02.158-.058.195-.084l.007-.776c-.016-.03-.092-.087-.19-.105zm-5.936 3.1C5.553 9.63 4.37 8.45 4.37 7c0-1.45 1.183-2.63 2.636-2.63S9.64 5.55 9.64 7 8.46 9.63 7.007 9.63zM7 5.25c-.965 0-1.75.785-1.75 1.75S6.035 8.75 7 8.75 8.75 7.965 8.75 7 7.965 5.25 7 5.25z"/></svg>